<?xml version="1.0" ?><svg style="enable-background:new 0 0 64 64;" version="1.1" viewBox="0 0 64 64" xml:space="preserve" xmlns="http://www.w3.org/2000/svg" xmlns:xlink="http://www.w3.org/1999/xlink"><style type="text/css">
	.st0{enable-background:new    ;}
	.st1{fill-rule:evenodd;clip-rule:evenodd;fill:#A4C3FF;}
	.st2{fill-rule:evenodd;clip-rule:evenodd;fill:#54596E;}
	.st3{fill-rule:evenodd;clip-rule:evenodd;fill:#FFFFFF;}
	.st4{fill-rule:evenodd;clip-rule:evenodd;fill:#FF6669;}
	.st5{fill-rule:evenodd;clip-rule:evenodd;fill:#B0E7A7;}
	.st6{fill-rule:evenodd;clip-rule:evenodd;fill:#FFC483;}
</style><g class="st0" id="Rectangle_2_1_"/><g id="coloured_in_1_"><g id="twitter_3_"/><g id="instagram_3_"/><g id="youtube_3_"><g id="Shape_8"><g><path class="st4" d="M63.1,24.5c0-3-0.1-6.1-1.6-8.9c-0.3-0.5-0.6-1.1-1-1.6c-1.1-1.2-2.9-1.7-4.5-2c-4-0.7-8.7-0.8-12.7-1      c-4.6-0.2-9.1-0.3-13.7-0.5c-2.5-0.1-4.9-0.1-7.5,0c-2.8,0.1-5.7,0.2-8.5,0.6c-3.2,0.5-7.7,0.6-10.7,4.3l0,0      c-2,2.8-1.9,13.8-1.6,21C1.4,40.7,2,45.3,5,48.3c3.3,3.4,8.4,4,13.2,4.1c12.3,0.3,23.5,0.2,35.7-0.3c1,0,2-0.1,2.9-0.4      c2-0.7,3.6-2.4,4.4-4.4c0.9-1.9,1.2-4.1,1.5-6.2C63.4,35.7,63.1,30,63.1,24.5z"/></g></g><g id="Shape_9"><g><path class="st3" d="M32.6,26.5c-1.1-0.5-2.1-1.4-3.1-2.1c-1-0.7-2.2-1.2-3.2-1.8l-0.2,0c0,2.2,0,4.3,0,6.5c0,3.8,0,7.7,0,11.5      c4.8-3.3,9.8-6.4,15-9.1C38.4,29.6,35.7,27.9,32.6,26.5z"/></g></g><g id="Shape_18_copy"><g><path class="st2" d="M64.1,28.3c0-1.1,0-2.2,0-3.2c0-3.3-0.1-6.5-1.7-9.5c-0.3-0.6-0.7-1.3-1.2-1.9c-1.4-1.6-3.5-2.2-5.3-2.5      c-3.9-0.7-8.3-0.9-12.3-1L29.7,9.7c-2.3-0.1-4.5-0.1-7.4,0c-2.4,0.1-5.6,0.2-8.5,0.6c-0.3,0-0.7,0.1-1.1,0.1      c-3.1,0.4-7.2,0.9-10.2,4.5c-0.1,0.1-0.2,0.2-0.2,0.3c-1.7,2.4-2.3,9.2-1.9,21.9c0.2,4.4,0.7,9.4,4,12.8c3.6,3.8,9.1,4.4,14,4.6      c4.9,0.1,9.4,0.2,13.8,0.2c7.5,0,14.4-0.2,21.4-0.5c1,0,2.1-0.1,3.2-0.5c2.2-0.7,4.1-2.6,5.3-5.2c0.9-2.1,1.3-4.4,1.6-6.6      C64.2,37.4,64.2,32.7,64.1,28.3z M61.2,33.7c-0.3-0.3-0.7-0.6-0.8-0.7c-0.6-0.5-1.5-0.6-2.1,0c-0.5,0.5-0.6,1.6,0,2.1      c0.7,0.5,1.8,1.5,2.8,2.3c0,0.8-0.1,1.5-0.2,2.3c-1.2-0.9-2.3-1.8-3.5-2.7c-0.6-0.5-1.5-0.6-2.1,0c-0.5,0.5-0.6,1.6,0,2.1      c1.5,1.1,2.9,2.3,4.4,3.4c0.2,0.2,0.5,0.3,0.8,0.4c-0.1,0.9-0.3,1.9-0.6,2.8c-1.6-1.3-3.2-2.7-4.7-4.1c-1.4-1.3-3.5,0.8-2.1,2.1      c1.6,1.5,3.3,3,5.1,4.4c0.2,0.1,0.4,0.2,0.5,0.3c-0.5,0.8-1.2,1.5-1.9,1.9c0-0.3-0.2-0.5-0.5-0.8c-2.1-1.7-4.2-3.3-6.4-5      c-1.5-1.2-3.6,0.9-2.1,2.1c1.9,1.5,3.8,3,5.7,4.5c-0.1,0-0.1,0-0.2,0c-1.2,0.1-2.4,0.1-3.6,0.1c-0.1-0.2-0.3-0.4-0.5-0.6      c-2.2-1.6-4.4-3.3-6.5-5.1c-1.5-1.2-3.6,0.9-2.1,2.1c1.5,1.3,3.1,2.5,4.7,3.7c-0.9,0-1.9,0.1-2.8,0.1c-0.1-0.2-0.2-0.5-0.4-0.7      c-1.9-1.7-3.7-3.5-5.6-5.2c-1.4-1.3-3.5,0.8-2.1,2.1c1.4,1.3,2.8,2.6,4.1,3.9c-0.7,0-1.4,0-2,0c-0.1-0.3-0.3-0.6-0.6-0.9      c-1.6-1.1-3.1-2.4-4.6-3.8c-1.4-1.3-3.5,0.8-2.1,2.1c0.9,0.9,1.9,1.8,3,2.6c-1.1,0-2.2,0-3.4,0c0.1-0.6-0.2-1.1-0.7-1.4      c-0.6-0.4-1.2-0.8-1.8-1.1c-0.7-0.4-1.7-0.1-2,0.5c-0.4,0.7-0.1,1.5,0.5,2c-2.1,0-4.2-0.1-6.5-0.1c-4.3-0.1-9.1-0.6-11.9-3.6      c-2.6-2.7-3.1-7-3.2-10.9C2.8,23.2,3.6,18.5,4.4,17c0,0,0.1-0.1,0.1-0.1c2.3-2.9,5.6-3.3,8.5-3.6c0.4,0,0.8-0.1,1.1-0.1      c2.8-0.4,5.9-0.5,8.2-0.6c2.8-0.1,5.1-0.1,7.3,0l13.9,0.5c3.9,0.1,8.2,0.3,11.9,0.9c1.3,0.2,2.8,0.6,3.6,1.5      c0.3,0.3,0.5,0.8,0.8,1.3c1.3,2.5,1.4,5.2,1.4,8.2c0,1.1,0,2.2,0,3.2C61.2,30.1,61.2,31.9,61.2,33.7z M41.9,31.1      c-3.2-2.2-5.9-3.9-8.7-5.3c-0.7-0.3-1.4-0.9-2.1-1.4c-0.3-0.2-0.6-0.4-0.9-0.6c-0.6-0.5-1.3-0.8-2-1.2c-0.4-0.2-0.9-0.5-1.3-0.7      c-0.4-0.2-0.8-0.3-1.2-0.2c-0.6,0.2-1.1,0.7-1.1,1.4c0,1.1,0,2.2-0.1,3.3c0,1.1-0.1,2.3-0.1,3.4c0,2,0,4,0.1,5.9      c0,2,0.1,3.9,0.1,5.9c0,0.6,0.3,1.1,0.8,1.3c0.2,0.1,0.4,0.2,0.7,0.2c0.3,0,0.6-0.1,0.9-0.3c4.7-3.4,9.7-6.5,14.8-9.3      c0.4-0.2,0.7-0.7,0.8-1.2C42.6,31.9,42.4,31.4,41.9,31.1z M27.6,38.9c0-1,0-2.1,0-3.1c0-2-0.1-3.9-0.1-5.9c0-1.1,0-2.2,0.1-3.3      c0-0.3,0-0.6,0-1c0.3,0.2,0.7,0.4,1,0.6c0.3,0.2,0.5,0.4,0.8,0.6c0.8,0.6,1.6,1.2,2.5,1.6c2.1,1.1,4.1,2.2,6.4,3.7      C34.6,34.3,31.1,36.5,27.6,38.9z"/></g></g></g><g id="whatsapp_3_"/><g id="facebook_3_"/><g id="reddit_3_"/><g id="telegram_3_"/><g id="nextdoor_3_"/><g id="linkedin_3_"/><g id="pinterest_3_"/></g><g id="outlines_1_"><g id="twitter_2_"/><g id="instagram_2_"/><g id="youtube_2_"/><g id="whatsapp_2_"/><g id="facebook_2_"/><g id="reddit_2_"/><g id="telegram_2_"/><g id="nextdoor_2_"/><g id="linkedin_2_"/><g id="pinterest_2_"/></g></svg>